<svg xmlns="http://www.w3.org/2000/svg" xmlns:xlink="http://www.w3.org/1999/xlink" width="180.49" height="180" viewBox="0 0 180.49 180">
  <defs>
    <clipPath id="clip-path">
      <rect id="Rechteck_1546" data-name="Rechteck 1546" width="134.115" height="151.692" fill="none" stroke="#6e23d2" stroke-width="6"/>
    </clipPath>
  </defs>
  <g id="grafic_id" transform="translate(-97.51 -177)">
    <g id="Illustration" transform="translate(98 177)">
      <g id="illustration-2" data-name="illustration">
        <circle id="Ellipse_243" data-name="Ellipse 243" cx="90" cy="90" r="90" fill="#f2f2ff"/>
      </g>
    </g>
    <g id="icon_ident" transform="translate(-134.49 -194.447)">
      <g id="Gruppe_708" data-name="Gruppe 708" transform="translate(277.864 387.447)">
        <path id="Linie_209" data-name="Linie 209" d="M0,3.135A3,3,0,0,1-3,.178,3,3,0,0,1-.043-2.864L9.5-3A3,3,0,0,1,12.541-.043,3,3,0,0,1,9.584,3L.043,3.135Z" transform="translate(38.596 18.101)" fill="#6e23d2"/>
        <g id="Gruppe_707" data-name="Gruppe 707" transform="translate(0 0)">
          <g id="Gruppe_706" data-name="Gruppe 706" clip-path="url(#clip-path)">
            <path id="Pfad_3434" data-name="Pfad 3434" d="M39.438,58.314A2.992,2.992,0,0,1,37.2,57.307L19.446,37.34A22.31,22.31,0,0,0,2.783,29.857H1.5a3,3,0,0,1,0-6H2.783a28.314,28.314,0,0,1,21.147,9.5L41.679,53.321a3,3,0,0,1-2.241,4.993Z" transform="translate(90.828 42.07)" fill="#6e23d2"/>
            <path id="Pfad_3435" data-name="Pfad 3435" d="M81.492,91.211a3.035,3.035,0,0,1-.313-.016L46.4,87.6a3,3,0,0,1-1.249-.42L19.855,71.806c-.123-.079-5.32-3.592-12.966-9.719C-2.7,54.416-2.991,45.342.8,40.159s12.386-7.778,22.277-1.187c4.329,2.885,8.776,5.942,12.787,8.7,3.962,2.723,7.49,5.151,10.034,6.811.433-.772.907-1.655,1.3-2.426A3,3,0,0,1,52.54,54.79c-3,5.859-3.768,6.307-4.971,6.641a3.141,3.141,0,0,1-2.444-.347C42.713,59.656,38,56.42,32.465,52.615c-3.989-2.742-8.411-5.782-12.716-8.651-6.607-4.4-11.944-3.224-14.106-.265-2.229,3.049-1.548,8.468,5,13.7,7.379,5.913,12.4,9.319,12.455,9.354L47.688,81.7,81.8,85.227a3,3,0,0,1-.305,5.984Z" transform="translate(48.777 59.631)" fill="#6e23d2"/>
            <path id="Pfad_3436" data-name="Pfad 3436" d="M24.949,145.151a8.059,8.059,0,0,1-7.692-8.439l0-129.938a7.994,7.994,0,0,1,7.512-8.268L93.848-1.5a8.067,8.067,0,0,1,7.692,8.436l0,101.656h-6V6.774a2.065,2.065,0,0,0-1.881-2.28L24.949,4.5a2,2,0,0,0-1.7,2.112l0,130.265a2.061,2.061,0,0,0,1.878,2.28l68.717-.005a2,2,0,0,0,1.7-2.112l0-3.09h6v2.928a8,8,0,0,1-7.512,8.268Z" transform="translate(-16.395 2.35)" fill="#6e23d2"/>
            <path id="Pfad_3437" data-name="Pfad 3437" d="M35.5,55.211a3,3,0,0,1-3-3v-3.08A24.586,24.586,0,0,1,57.059,24.573a3,3,0,0,1,0,6A18.579,18.579,0,0,0,38.5,49.131v3.08A3,3,0,0,1,35.5,55.211Z" transform="translate(-14.056 43.191)" fill="#00dcb4"/>
            <path id="Ellipse_286" data-name="Ellipse 286" d="M12.319-3A15.319,15.319,0,1,1-3,12.319,15.336,15.336,0,0,1,12.319-3Zm0,24.638A9.319,9.319,0,1,0,3,12.319,9.33,9.33,0,0,0,12.319,21.638Z" transform="translate(30.682 46.132)" fill="#00dcb4"/>
            <path id="Pfad_3438" data-name="Pfad 3438" d="M48.817,49.293a3,3,0,0,1-3-3c0-10.859-9.4-15.72-18.714-15.72a3,3,0,0,1,0-6c14.551,0,24.714,8.932,24.714,21.72A3,3,0,0,1,48.817,49.293Z" transform="translate(15.895 43.191)" fill="#00dcb4"/>
          </g>
        </g>
      </g>
      <rect id="Rechteck_1547" data-name="Rechteck 1547" width="179.652" height="146.288" transform="translate(232 388.866)" fill="none"/>
    </g>
  </g>
</svg>
