<svg xmlns="http://www.w3.org/2000/svg" xmlns:xlink="http://www.w3.org/1999/xlink" width="1024" height="1024" viewBox="0 0 1024 1024">
  <defs>
    <clipPath id="clip-path">
      <rect id="Rechteck_1576" data-name="Rechteck 1576" width="1794" height="1614"/>
    </clipPath>
    <clipPath id="clip-path-2">
      <rect id="Rechteck_1577" data-name="Rechteck 1577" width="939.392" height="934.73" fill="none"/>
    </clipPath>
    <clipPath id="clip-DM_icon_eEWA_wallet">
      <rect width="1024" height="1024"/>
    </clipPath>
  </defs>
  <g id="DM_icon_eEWA_wallet" clip-path="url(#clip-DM_icon_eEWA_wallet)">
    <g id="DM_icon_eEWA_wallet-2" data-name="DM_icon_eEWA_wallet" transform="translate(740 934)" clip-path="url(#clip-path)">
      <g id="app_icon" transform="translate(-111.47 283.177) rotate(-15.009)">
        <g id="Illustration" transform="translate(0 0)">
          <g id="illustration-2" data-name="illustration">
            <path id="Ellipse_243" data-name="Ellipse 243" d="M817.962,20.681C1269.71,32.1,1645.183,375.524,1656.6,787.734s-345.533,737.113-797.281,725.692S32.1,1158.583,20.681,746.373,366.214,9.259,817.962,20.681Z" fill="#2f2f2f"/>
          </g>
        </g>
        <g id="Gruppe_711" data-name="Gruppe 711" transform="translate(105.394 215.947)">
          <path id="Pfad_3355" data-name="Pfad 3355" d="M104.418,211.233a38.573,38.573,0,0,1-24.854-10.017L14.543,141.5C.591,128.689-.033,108.538,13.151,96.494s35.18-11.421,49.132,1.392L102.042,134.4,231.768,15.879C244.95,3.834,266.948,4.457,280.9,17.271s14.575,32.964,1.392,45.008l-153.6,140.329A34.453,34.453,0,0,1,104.418,211.233Z" transform="translate(1098.078 752.171) rotate(-2)" fill="#80edda"/>
          <path id="Linie_207" data-name="Linie 207" d="M46.352,314.519c-19.072-.482-34.983-14.889-35.669-32.3L.891,32.094C.2,14.548,15.226.569,34.445.873S69.8,15.644,70.487,33.191l9.789,250.117c.687,17.545-14.335,31.523-33.552,31.22Z" transform="translate(188.912 444.885)" fill="#f4f4f4"/>
          <path id="Linie_211" data-name="Linie 211" d="M57.108,121.12c-14.872.073-28.073-8.311-32.93-20.915L1.746,41.986C-4.572,25.588,5.131,7.538,23.419,1.669S61.654,4.335,67.972,20.733L90.4,78.952a29.086,29.086,0,0,1-4.644,28.7c-6.615,8.377-17.294,13.4-28.652,13.464Z" transform="translate(213.628 813.622) rotate(18)" fill="#f4f4f4"/>
          <path id="Linie_212" data-name="Linie 212" d="M1233.255,94.658,36.567,64.4C17.344,63.915,1.366,49.3.88,31.761S15.584.394,34.807.88L1231.5,31.136c19.223.486,35.2,15.1,35.687,32.641S1252.479,95.144,1233.255,94.658Z" transform="translate(130.337 139.394)" fill="#f4f4f4"/>
          <path id="Pfad_3358" data-name="Pfad 3358" d="M976.424,1104.039l-105.489-4.5L204.409,1073.7c-95.238-2.547-175.4-83.332-178.23-180.065L5.139,175.433C2.305,78.7,77.853,2.085,173.548,4.648a38.109,38.109,0,0,1,28.964,14.421l801.009,1035.808c7.669,9.917,8.908,22.6,3.216,32.929s-17.373,16.579-30.317,16.233ZM158.409,69.276C109.4,76.728,73.067,121.862,74.691,177.3L95.731,895.5c1.807,61.675,49.929,113.1,107.273,114.635l667.134,25.857,37.078,1.584Z" transform="translate(0.421 15.209) rotate(-0.974)" fill="#f4f4f4"/>
          <path id="Pfad_3359" data-name="Pfad 3359" d="M298.219,7.54A206.7,206.7,0,0,1,344.032,13.9L537.993,63.435c36.052,9.278,61.657,39.689,61.8,73.4C597.734,551.6,335.209,613.875,324.039,616.324a38.1,38.1,0,0,1-17.906-.453c-2.525-.673-25.623-7.108-58.54-25.649C164.109,543.2,21.376,419.816,3.392,121.754,1.669,88,25.621,58.85,61.205,51.381L252.673,11.6A199.526,199.526,0,0,1,298.219,7.54ZM313.5,551.814c42.462-14.215,215.033-92.1,216.66-418.633-.127-4.029-3.275-7.6-7.6-8.614L328.627,75.039a127.7,127.7,0,0,0-57.118-1.444L80.052,113.379a8.319,8.319,0,0,0-7.13,8.238C89.08,389.421,210.757,496.59,281.848,536.63a250.011,250.011,0,0,0,31.654,15.19Z" transform="translate(928.404 557.805)" fill="#f4f4f4"/>
          <path id="Pfad_3445" data-name="Pfad 3445" d="M726.892,197.9,171.315,183.855C74.745,181.413,12.658,107.406,1.238,35.562-1.54,18.088,11.634,2.617,30.662,1.005s36.7,11.247,39.482,28.721c6.772,42.6,40.769,89.125,99.411,90.608l555.577,14.047c19.223.486,35.2,15.1,35.687,32.641s-14.7,31.366-33.927,30.88Z" transform="translate(7.883 141.634)" fill="#f4f4f4"/>
          <path id="Pfad_3446" data-name="Pfad 3446" d="M673.691,223.913,173.434,211.265C80.964,208.925,3.558,128.4.88,31.761L0,0,69.614,1.76l.88,31.761c1.707,61.615,47.1,112.854,101.18,114.221l553.294,13.989,31.5.806.912.023,34.368,1.685.421,31.336c.318,23.634-19.372,28.943-33.951,30l.013.465-84.541-2.137Z" transform="translate(1453.348 501.106) rotate(180)" fill="#f4f4f4"/>
          <path id="Pfad_3448" data-name="Pfad 3448" d="M37.741,106.766c-19.223-.486-35.2-15.1-35.687-32.641L.88,31.761C.394,14.22,15.584.394,34.807.88s35.2,15.1,35.687,32.641l1.174,42.365c.486,17.541-14.7,31.367-33.927,30.881Z" transform="translate(1383.06 465.91)" fill="#f4f4f4"/>
        </g>
      </g>
    </g>
    <g id="Gruppe_768" data-name="Gruppe 768" transform="translate(42.303 44.634)">
      <g id="Gruppe_767" data-name="Gruppe 767" clip-path="url(#clip-path-2)">
        <path id="Pfad_3573" data-name="Pfad 3573" d="M346.362,16.057C595.612-50.772,851.845,97.112,918.674,346.363S837.619,851.846,588.368,918.675,82.884,837.62,16.056,588.369,97.111,82.885,346.362,16.057" transform="translate(0 0)" fill="#2f2f2f"/>
        <path id="Pfad_3574" data-name="Pfad 3574" d="M792.871,641.321a19.882,19.882,0,0,1-15.148-1.456l-45.19-24.019a19.883,19.883,0,0,1,18.509-35.2l.155.082,27.632,14.687L829.543,500a19.883,19.883,0,0,1,35.114,18.663L804.61,631.64a19.881,19.881,0,0,1-11.739,9.681" transform="translate(-4.31 -2.923)" fill="#80edda"/>
        <path id="Pfad_3575" data-name="Pfad 3575" d="M226.008,678.515a19.884,19.884,0,0,1-24.3-13.856L159.6,513.888a19.883,19.883,0,0,1,13.8-24.5h0a19.884,19.884,0,0,1,24.5,13.8v0L240.014,653.96a19.884,19.884,0,0,1-13.8,24.5h0Z" transform="translate(-0.948 -2.918)" fill="#f4f4f4"/>
        <path id="Pfad_3576" data-name="Pfad 3576" d="M251.262,794.608a19.887,19.887,0,0,1-18.038-14.256l-10.987-37.405a19.882,19.882,0,1,1,38.152-11.207l10.986,37.405a19.9,19.9,0,0,1-20.113,25.463" transform="translate(-1.322 -4.284)" fill="#f4f4f4"/>
        <path id="Pfad_3577" data-name="Pfad 3577" d="M766.714,172.053,106.443,349.083a19.883,19.883,0,0,1-10.3-38.409l660.271-177.03a19.883,19.883,0,0,1,10.3,38.409" transform="translate(-0.486 -0.794)" fill="#f4f4f4"/>
        <path id="Pfad_3578" data-name="Pfad 3578" d="M241.746,879.975c-44.443,0-86.7-32.617-100.747-81.662L17.3,366.433C.638,308.264,29.881,248.682,82.487,233.615c.11-.032.223-.063.334-.092L736.651,58.539a19.886,19.886,0,1,1,10.282,38.419L93.284,271.893C61.861,281,44.928,318.457,55.533,355.482l123.7,431.879c10.622,37.088,44.912,59.912,76.433,50.885l.25-.071L623.651,738.05l58-15.524a19.886,19.886,0,0,1,10.282,38.42l-57.917,15.5L266.483,876.519a90.2,90.2,0,0,1-24.737,3.456" transform="translate(-0.075 -0.345)" fill="#f4f4f4"/>
        <path id="Pfad_3579" data-name="Pfad 3579" d="M743.406,397.8a106.193,106.193,0,0,1,26.051-3.61l113.566-1.5a45.456,45.456,0,0,1,44.655,34.622c59.815,253.011-74.907,333.826-80.669,337.142a19.879,19.879,0,0,1-9.88,2.649c-1.483,0-15.086-.145-35.851-6.064-52.661-15.009-149.013-66.861-202.666-245.5a45.457,45.457,0,0,1,21.344-52.315l99.084-55.511a106.182,106.182,0,0,1,24.366-9.91m88.348,329.073c21.182-15.6,104.312-91.231,57.224-290.417a5.434,5.434,0,0,0-5.431-4.006l-113.559,1.5a66.629,66.629,0,0,0-31.515,8.449L639.4,497.91a5.435,5.435,0,0,0-2.7,6.184c48.2,160.506,130.635,205.918,175.479,218.7a129.192,129.192,0,0,0,19.579,4.084Z" transform="translate(-3.563 -2.345)" fill="#f4f4f4"/>
        <path id="Pfad_3580" data-name="Pfad 3580" d="M437.2,340.025,130.66,422.214c-53.282,14.285-98.182-20.659-115-62.56a19.883,19.883,0,0,1,36.905-14.81c9.97,24.846,35.438,47.636,67.794,38.961L426.9,301.616a19.883,19.883,0,0,1,10.3,38.409" transform="translate(-0.085 -1.797)" fill="#f4f4f4"/>
        <path id="Pfad_3581" data-name="Pfad 3581" d="M454.9,294.216l276.016-74c51.021-13.678,105.274,22.734,120.941,81.169l5.149,19.2-38.409,10.3-5.149-19.2c-9.989-37.257-42.393-61.058-72.233-53.057l-305.279,81.85-17.382,4.654-.5.135-19.082,4.587-4.836-19.022c-3.646-14.346,6.364-20.8,14.2-23.823l-.076-.281L454.9,294.217Z" transform="translate(-2.349 -1.298)" fill="#f4f4f4"/>
        <path id="Pfad_3582" data-name="Pfad 3582" d="M847.072,370.71a19.893,19.893,0,0,1-19.193-14.738l-6.869-25.617a19.883,19.883,0,0,1,38.41-10.3l6.869,25.617a19.9,19.9,0,0,1-19.218,25.037" transform="translate(-4.898 -1.823)" fill="#f1f1f1"/>
      </g>
    </g>
  </g>
</svg>
