<svg id="grafic_lock" data-name="grafic lock" xmlns="http://www.w3.org/2000/svg" width="180" height="180" viewBox="0 0 180 180">
  <g id="grafic_document" data-name="grafic document">
    <g id="Illustration">
      <g id="illustration-2">
        <path id="Ellipse_243" data-name="Ellipse 243" d="M90,0A90,90,0,1,1,0,90,90,90,0,0,1,90,0Z" fill="#2f2f2f"/>
      </g>
    </g>
    <g id="icon_doc" data-name="icon doc">
      <path id="Pfad_3592" data-name="Pfad 3592" d="M88.38,106.43a2.958,2.958,0,0,1-2.12-.88L79.8,99.09a3,3,0,0,1,4.24-4.24l4.34,4.34,10.8-10.81a3,3,0,0,1,4.24,4.24L90.5,105.55a2.975,2.975,0,0,1-2.12.88Z" fill="#80edda"/>
      <rect id="Rechteck_1548" data-name="Rechteck 1548" width="171" height="143" transform="translate(4 19)" fill="none"/>
    </g>
  </g>
  <g id="AUTHADA_Illustrationen_LM_pin_entsperren-20" data-name="AUTHADA Illustrationen LM pin entsperren-20">
    <path id="Pfad_2134" data-name="Pfad 2134" d="M48.55,153.82a1.872,1.872,0,0,1,.4,1.06,1.541,1.541,0,0,1-1.51,1.54,1.722,1.722,0,0,1-1.44-.8l-1.37-2.22-1.41,2.18a1.65,1.65,0,0,1-1.4.87,1.6,1.6,0,0,1-1.54-1.6c0-1.06,1.48-2.12,2.12-3.05-1.48-.34-3.83-.64-3.83-2.24a1.409,1.409,0,0,1,1.37-1.45h.17a9.238,9.238,0,0,1,3.12.98L43,146.6v-.17a1.56,1.56,0,0,1,3.11-.25v.39l-.2,2.52,2.24-.84a1.893,1.893,0,0,1,.78-.14,1.434,1.434,0,0,1,1.54,1.32v.15a1.591,1.591,0,0,1-1.21,1.51l-2.51.64,1.8,2.08Z" fill="#f4f4f4"/>
    <path id="Pfad_2135" data-name="Pfad 2135" d="M66.52,153.82a1.872,1.872,0,0,1,.4,1.06,1.541,1.541,0,0,1-1.51,1.54,1.752,1.752,0,0,1-1.45-.8l-1.37-2.22-1.4,2.18a1.666,1.666,0,0,1-1.41.87,1.6,1.6,0,0,1-1.54-1.6c0-1.06,1.48-2.12,2.12-3.05-1.48-.34-3.83-.64-3.83-2.24a1.421,1.421,0,0,1,1.4-1.45h.16a9.651,9.651,0,0,1,3.11.98l-.23-2.49v-.17a1.56,1.56,0,0,1,3.11-.25v.39l-.2,2.52,2.24-.84a1.893,1.893,0,0,1,.78-.14,1.434,1.434,0,0,1,1.54,1.32v.15a1.6,1.6,0,0,1-1.2,1.51l-2.52.64,1.79,2.08Z" fill="#f4f4f4"/>
    <path id="Pfad_2136" data-name="Pfad 2136" d="M84.49,153.82a1.872,1.872,0,0,1,.4,1.06,1.541,1.541,0,0,1-1.51,1.54,1.777,1.777,0,0,1-1.45-.8l-1.37-2.22-1.4,2.18a1.666,1.666,0,0,1-1.41.87,1.613,1.613,0,0,1-1.54-1.6c0-1.06,1.48-2.12,2.12-3.05-1.48-.34-3.82-.64-3.82-2.24a1.409,1.409,0,0,1,1.37-1.45h.17a9.651,9.651,0,0,1,3.11.98l-.23-2.49v-.17a1.56,1.56,0,0,1,3.11-.25v.39l-.2,2.52,2.25-.84a1.8,1.8,0,0,1,.76-.14,1.434,1.434,0,0,1,1.54,1.32v.15a1.6,1.6,0,0,1-1.2,1.51l-2.52.64,1.79,2.08Z" fill="#f4f4f4"/>
    <path id="Pfad_2137" data-name="Pfad 2137" d="M102.47,153.82a1.717,1.717,0,0,1,.4,1.06,1.541,1.541,0,0,1-1.51,1.54,1.7,1.7,0,0,1-1.43-.8l-1.38-2.22-1.4,2.18a1.666,1.666,0,0,1-1.41.87,1.613,1.613,0,0,1-1.54-1.6c0-1.06,1.48-2.12,2.12-3.05-1.47-.34-3.82-.64-3.82-2.24a1.409,1.409,0,0,1,1.37-1.45h.17a9.651,9.651,0,0,1,3.11.98l-.17-2.44v-.17a1.56,1.56,0,0,1,3.11-.25v.39l-.2,2.52,2.25-.84a1.8,1.8,0,0,1,.76-.14,1.434,1.434,0,0,1,1.54,1.32v.15a1.6,1.6,0,0,1-1.2,1.51l-2.52.64,1.73,2.04Z" fill="#f4f4f4"/>
    <path id="Pfad_2138" data-name="Pfad 2138" d="M120.45,153.82a1.792,1.792,0,0,1,.39,1.06,1.541,1.541,0,0,1-1.51,1.54,1.7,1.7,0,0,1-1.43-.8l-1.37-2.22-1.41,2.18a1.65,1.65,0,0,1-1.4.87,1.6,1.6,0,0,1-1.54-1.6c0-1.06,1.47-2.12,2.18-3.05-1.48-.34-3.83-.64-3.83-2.24a1.409,1.409,0,0,1,1.37-1.45h.17a9.651,9.651,0,0,1,3.11.98l-.23-2.49v-.17a1.565,1.565,0,0,1,3.13,0v.14l-.2,2.52,2.24-.84a1.893,1.893,0,0,1,.78-.14,1.452,1.452,0,0,1,1.54,1.35v.13a1.6,1.6,0,0,1-1.21,1.51l-2.51.64,1.74,2.08Z" fill="#f4f4f4"/>
    <path id="Pfad_2139" data-name="Pfad 2139" d="M138.43,153.82a1.872,1.872,0,0,1,.4,1.06,1.541,1.541,0,0,1-1.51,1.54,1.752,1.752,0,0,1-1.45-.8l-1.37-2.22-1.39,2.22a1.65,1.65,0,0,1-1.4.87,1.6,1.6,0,0,1-1.54-1.6c0-1.06,1.48-2.12,2.18-3.05-1.48-.34-3.83-.64-3.83-2.24a1.409,1.409,0,0,1,1.37-1.45h.17a9.238,9.238,0,0,1,3.12.98l-.24-2.49v-.17a1.566,1.566,0,0,1,3.13-.11v.25l-.2,2.52,2.24-.84a1.893,1.893,0,0,1,.78-.14,1.452,1.452,0,0,1,1.54,1.35v.13a1.591,1.591,0,0,1-1.21,1.51l-2.51.64,1.72,2.04Z" fill="#f4f4f4"/>
  </g>
  <path id="Pfad_3593" data-name="Pfad 3593" d="M125.04,127.15H53.93a6.961,6.961,0,0,1-6.95-6.95V75.43a6.961,6.961,0,0,1,6.95-6.95h6.22V45.14c0-10.15,6.13-29.34,29.34-29.34s29.34,19.19,29.34,29.34V68.48h6.22A6.961,6.961,0,0,1,132,75.43v44.78a6.961,6.961,0,0,1-6.95,6.95ZM53.93,74.48a.956.956,0,0,0-.95.95V120.2a.956.956,0,0,0,.95.95h71.11a.956.956,0,0,0,.95-.95V75.43a.956.956,0,0,0-.95-.95H53.93Zm12.22-6h46.68V45.14c0-.95-.27-23.34-23.34-23.34S66.15,44.18,66.15,45.14V68.48Z" fill="#e4e4e4"/>
</svg>
