<?xml version="1.0" encoding="UTF-8"?>
<svg id="Ebene_1" data-name="Ebene 1" xmlns="http://www.w3.org/2000/svg" viewBox="0 0 180 180">
  <g id="grafic_lock" data-name="grafic lock">
    <g id="grafic_document" data-name="grafic document">
      <g id="Illustration">
        <g id="illustration-2">
          <circle id="Ellipse_243" data-name="Ellipse 243" cx="90" cy="90" r="90" fill="#f2f2ff" stroke-width="0"/>
        </g>
      </g>
      <g id="icon_doc" data-name="icon doc">
        <path d="M88.38,106.43c-.77,0-1.54-.29-2.12-.88l-6.46-6.46c-1.17-1.17-1.17-3.07,0-4.24,1.17-1.17,3.07-1.17,4.24,0l4.34,4.34,10.8-10.81c1.17-1.17,3.07-1.17,4.24,0,1.17,1.17,1.17,3.07,0,4.24l-12.92,12.93c-.59.59-1.35.88-2.12.88Z" fill="#00dcb4" stroke-width="0"/>
        <rect id="Rechteck_1548" data-name="Rechteck 1548" x="4" y="19" width="171" height="143" fill="none" stroke-width="0"/>
      </g>
    </g>
    <g id="AUTHADA_Illustrationen_LM_pin_entsperren-20" data-name="AUTHADA Illustrationen LM pin entsperren-20">
      <path id="Pfad_2134" data-name="Pfad 2134" d="M48.55,153.82c.24.3.38.68.4,1.06,0,.84-.67,1.52-1.51,1.54-.58,0-1.13-.31-1.44-.8l-1.37-2.22-1.41,2.18c-.28.52-.81.85-1.4.87-.86-.03-1.54-.74-1.54-1.6,0-1.06,1.48-2.12,2.12-3.05-1.48-.34-3.83-.64-3.83-2.24-.02-.78.59-1.43,1.37-1.45.06,0,.11,0,.17,0,1.09.14,2.15.47,3.12.98l-.23-2.49v-.17c-.07-.86.57-1.61,1.43-1.68.86-.07,1.61.57,1.68,1.43,0,.08,0,.17,0,.25v.14l-.2,2.52,2.24-.84c.25-.1.51-.15.78-.14.79-.06,1.48.53,1.54,1.32,0,.05,0,.1,0,.15-.02.72-.51,1.34-1.21,1.51l-2.51.64,1.8,2.08Z" fill="#6e23d2" stroke-width="0"/>
      <path id="Pfad_2135" data-name="Pfad 2135" d="M66.52,153.82c.24.3.38.68.4,1.06,0,.84-.67,1.52-1.51,1.54-.58,0-1.13-.31-1.45-.8l-1.37-2.22-1.4,2.18c-.28.52-.82.85-1.41.87-.86-.03-1.54-.74-1.54-1.6,0-1.06,1.48-2.12,2.12-3.05-1.48-.34-3.83-.64-3.83-2.24-.01-.79.61-1.44,1.4-1.45.05,0,.1,0,.16,0,1.09.15,2.14.48,3.11.98l-.23-2.49v-.17c-.07-.86.57-1.61,1.43-1.68.86-.07,1.61.57,1.68,1.43,0,.08,0,.17,0,.25v.14l-.2,2.52,2.24-.84c.25-.1.51-.15.78-.14.79-.06,1.48.53,1.54,1.32,0,.05,0,.1,0,.15-.02.72-.51,1.33-1.2,1.51l-2.52.64,1.79,2.08Z" fill="#6e23d2" stroke-width="0"/>
      <path id="Pfad_2136" data-name="Pfad 2136" d="M84.49,153.82c.24.3.38.68.4,1.06,0,.84-.67,1.52-1.51,1.54-.58-.01-1.13-.31-1.45-.8l-1.37-2.22-1.4,2.18c-.28.52-.82.85-1.41.87-.86-.04-1.53-.74-1.54-1.6,0-1.06,1.48-2.12,2.12-3.05-1.48-.34-3.82-.64-3.82-2.24-.02-.78.59-1.43,1.37-1.45.06,0,.11,0,.17,0,1.09.15,2.14.48,3.11.98l-.23-2.49v-.17c-.07-.86.57-1.61,1.43-1.68.86-.07,1.61.57,1.68,1.43,0,.08,0,.17,0,.25v.14l-.2,2.52,2.25-.84c.24-.1.5-.15.76-.14.79-.06,1.48.53,1.54,1.32,0,.05,0,.1,0,.15-.02.72-.51,1.33-1.2,1.51l-2.52.64,1.79,2.08Z" fill="#6e23d2" stroke-width="0"/>
      <path id="Pfad_2137" data-name="Pfad 2137" d="M102.47,153.82c.25.3.39.67.4,1.06,0,.84-.67,1.52-1.51,1.54-.58,0-1.12-.31-1.43-.8l-1.38-2.22-1.4,2.18c-.28.52-.82.85-1.41.87-.86-.04-1.53-.74-1.54-1.6,0-1.06,1.48-2.12,2.12-3.05-1.47-.34-3.82-.64-3.82-2.24-.02-.78.59-1.43,1.37-1.45.06,0,.11,0,.17,0,1.09.15,2.14.48,3.11.98l-.17-2.44v-.17c-.07-.86.57-1.61,1.43-1.68.86-.07,1.61.57,1.68,1.43,0,.08,0,.17,0,.25v.14l-.2,2.52,2.25-.84c.24-.1.5-.15.76-.14.79-.06,1.48.53,1.54,1.32,0,.05,0,.1,0,.15-.02.72-.51,1.33-1.2,1.51l-2.52.64,1.73,2.04Z" fill="#6e23d2" stroke-width="0"/>
      <path id="Pfad_2138" data-name="Pfad 2138" d="M120.45,153.82c.24.3.38.68.39,1.06,0,.84-.67,1.52-1.51,1.54-.58,0-1.12-.31-1.43-.8l-1.37-2.22-1.41,2.18c-.28.52-.81.85-1.4.87-.86-.03-1.54-.74-1.54-1.6,0-1.06,1.47-2.12,2.18-3.05-1.48-.34-3.83-.64-3.83-2.24-.02-.78.59-1.43,1.37-1.45.06,0,.11,0,.17,0,1.09.15,2.14.48,3.11.98l-.23-2.49v-.17c0-.86.7-1.56,1.57-1.56.86,0,1.56.7,1.56,1.56v.14l-.2,2.52,2.24-.84c.25-.1.51-.15.78-.14.8-.05,1.48.55,1.54,1.35,0,.04,0,.09,0,.13-.02.72-.52,1.34-1.21,1.51l-2.51.64,1.74,2.08Z" fill="#6e23d2" stroke-width="0"/>
      <path id="Pfad_2139" data-name="Pfad 2139" d="M138.43,153.82c.24.3.38.68.4,1.06,0,.84-.67,1.52-1.51,1.54-.58,0-1.13-.31-1.45-.8l-1.37-2.22-1.39,2.22c-.28.52-.81.85-1.4.87-.86-.03-1.54-.74-1.54-1.6,0-1.06,1.48-2.12,2.18-3.05-1.48-.34-3.83-.64-3.83-2.24-.02-.78.59-1.43,1.37-1.45.06,0,.11,0,.17,0,1.09.14,2.15.47,3.12.98l-.24-2.49v-.17c-.03-.86.64-1.59,1.51-1.62s1.59.64,1.62,1.51c0,.04,0,.07,0,.11v.14l-.2,2.52,2.24-.84c.25-.1.51-.15.78-.14.8-.05,1.48.55,1.54,1.35,0,.04,0,.09,0,.13-.02.72-.51,1.34-1.21,1.51l-2.51.64,1.72,2.04Z" fill="#6e23d2" stroke-width="0"/>
    </g>
    <path d="M125.04,127.15H53.93c-3.83,0-6.95-3.12-6.95-6.95v-44.77c0-3.83,3.12-6.95,6.95-6.95h6.22v-23.34c0-10.15,6.13-29.34,29.34-29.34s29.34,19.19,29.34,29.34v23.34h6.22c3.83,0,6.95,3.12,6.95,6.95v44.78c0,3.83-3.12,6.95-6.95,6.95ZM53.93,74.48c-.52,0-.95.43-.95.95v44.77c0,.52.43.95.95.95h71.11c.52,0,.95-.43.95-.95v-44.77c0-.52-.43-.95-.95-.95H53.93ZM66.15,68.48h46.68v-23.34c0-.95-.27-23.34-23.34-23.34s-23.34,22.38-23.34,23.34v23.34Z" fill="#6e23d2" stroke-width="0"/>
  </g>
</svg>