<svg id="DM_grafic_ident" data-name="DM_grafic ident" xmlns="http://www.w3.org/2000/svg" xmlns:xlink="http://www.w3.org/1999/xlink" width="202.84" height="187.35" viewBox="0 0 202.84 187.35">
  <defs>
    <clipPath id="clip-path">
      <rect id="Rechteck_1578" data-name="Rechteck 1578" width="134.12" height="151.69" transform="translate(68.72 35.66)" fill="none"/>
    </clipPath>
    <clipPath id="clip-path-2">
      <rect id="Rechteck_1579" data-name="Rechteck 1579" width="202.84" height="187.35" fill="none"/>
    </clipPath>
  </defs>
  <g id="Illustration">
    <g id="illustration-2">
      <circle id="Ellipse_243" data-name="Ellipse 243" cx="90" cy="90" r="90" transform="translate(13.84 3.68)" fill="#2f2f2f"/>
    </g>
  </g>
  <g id="grafic_ident-2" data-name="grafic ident-2">
    <path id="Pfad_3583" data-name="Pfad 3583" d="M124.7,64.45H81.17a3,3,0,0,1,0-6H121.7V46.67a3,3,0,1,1,6,0V61.45Z" fill="#bff6ec"/>
    <g id="Gruppe_734" data-name="Gruppe 734">
      <g id="Gruppe_769" data-name="Gruppe 769" clip-path="url(#clip-path)">
        <g id="Gruppe_733" data-name="Gruppe 733">
          <path id="Pfad_3584" data-name="Pfad 3584" d="M144.7,183.16H76.96a8,8,0,0,1-7.38-8.36V83.52h6v91.56a1.964,1.964,0,0,0,1.73,2.08h67.14a1.982,1.982,0,0,0,1.74-2.09v-3.12h6v2.84a8.01,8.01,0,0,1-7.38,8.35h-.11Z" fill="#f4f4f4"/>
          <path id="Pfad_3585" data-name="Pfad 3585" d="M152.18,171.96h-6V44.6a1.964,1.964,0,0,0-1.73-2.08H77.31a1.982,1.982,0,0,0-1.74,2.09V57.44h-6V44.89a8.01,8.01,0,0,1,7.38-8.35H144.8a8.01,8.01,0,0,1,7.38,8.35V171.98Z" fill="#f4f4f4"/>
        </g>
      </g>
    </g>
    <g id="Gruppe_736" data-name="Gruppe 736">
      <g id="Gruppe_770" data-name="Gruppe 770" clip-path="url(#clip-path-2)">
        <g id="Gruppe_735" data-name="Gruppe 735">
          <path id="Pfad_3500" data-name="Pfad 3500" d="M128.85,58.66a4.5,4.5,0,1,1-4.5,4.5,4.494,4.494,0,0,1,4.5-4.5h0" fill="#f4f4f4"/>
          <path id="Pfad_3586" data-name="Pfad 3586" d="M3,61.13a2.971,2.971,0,0,1-1.99-.76,3,3,0,0,1-.25-4.24L18.51,36.16a28.323,28.323,0,0,1,21.14-9.5h1.28a3,3,0,1,1,0,6H39.65a22.331,22.331,0,0,0-16.66,7.48L5.24,60.12A2.985,2.985,0,0,1,3,61.13Z" fill="#f4f4f4"/>
          <path id="Pfad_3587" data-name="Pfad 3587" d="M3,111.59a3,3,0,0,1-.31-5.98l34.11-3.53L61.46,87.1c.58-.39,5.48-3.77,12.39-9.32,6.54-5.24,7.22-10.65,5-13.7-2.16-2.96-7.5-4.14-14.11.26-4.31,2.87-8.79,5.95-12.74,8.67-5.46,3.75-10.18,7-12.7,8.49a3.117,3.117,0,0,1-2.39.31c-1.2-.33-1.97-.78-4.97-6.64a3,3,0,1,1,5.34-2.74c.43.83.89,1.69,1.3,2.43,2.56-1.67,6.09-4.1,10.01-6.79,3.97-2.73,8.47-5.82,12.81-8.72,9.89-6.59,18.48-4,22.28,1.19s3.5,14.26-6.09,21.93c-7.53,6.04-12.63,9.5-12.84,9.64-.04.03-.08.05-.12.08l-25.3,15.37a3.09,3.09,0,0,1-1.25.42L3.3,111.58c-.1.01-.21.02-.31.02ZM36.3,76.3s-.07.04-.11.06A1.091,1.091,0,0,1,36.3,76.3Z" fill="#f4f4f4"/>
          <path id="Pfad_3588" data-name="Pfad 3588" d="M50.8,63.16A10.823,10.823,0,0,1,39.99,52.35V10.81A10.823,10.823,0,0,1,50.8,0h66.47a10.823,10.823,0,0,1,10.81,10.81V32.43a2.5,2.5,0,1,1-5,0V10.81A5.821,5.821,0,0,0,117.27,5H50.8a5.821,5.821,0,0,0-5.81,5.81V52.35a5.821,5.821,0,0,0,5.81,5.81,2.5,2.5,0,0,1,0,5Zm62.69-41.54H59.12a2.5,2.5,0,1,1,0-5h54.37a2.5,2.5,0,0,1,0,5Z" fill="#80edda"/>
          <path id="Pfad_3589" data-name="Pfad 3589" d="M95.91,30.6H59.4a2.5,2.5,0,0,1,0-5H95.91a2.5,2.5,0,0,1,0,5Z" fill="#80edda"/>
        </g>
      </g>
    </g>
  </g>
</svg>
