<?xml version="1.0" encoding="UTF-8"?>
<svg id="Ebene_1" data-name="Ebene 1" xmlns="http://www.w3.org/2000/svg" xmlns:xlink="http://www.w3.org/1999/xlink" viewBox="0 0 202.84 187.35">
  <defs>
    <clipPath id="clippath">
      <rect x="68.72" y="35.66" width="134.12" height="151.69" fill="none" stroke-width="0"/>
    </clipPath>
    <clipPath id="clippath-1">
      <rect width="202.84" height="187.35" fill="none" stroke-width="0"/>
    </clipPath>
  </defs>
  <g id="grafic_ident" data-name="grafic ident">
    <g id="Illustration">
      <g id="illustration-2">
        <circle id="Ellipse_243" data-name="Ellipse 243" cx="103.84" cy="93.68" r="90" fill="#f2f2ff" stroke-width="0"/>
      </g>
    </g>
    <g id="grafic_ident-2" data-name="grafic ident-2">
      <path d="M124.7,64.45h-43.53c-1.66,0-3-1.34-3-3s1.34-3,3-3h40.53v-11.78c0-1.66,1.34-3,3-3s3,1.34,3,3v14.78l-3,3Z" fill="#bff6ec" stroke-width="0"/>
      <g id="Gruppe_734" data-name="Gruppe 734">
        <g clip-path="url(#clippath)">
          <g id="Gruppe_733" data-name="Gruppe 733">
            <path d="M144.7,183.16h-67.74c-4.31-.32-7.6-4.05-7.38-8.36v-91.28h6v91.56c-.07,1.05.7,1.96,1.73,2.08h67.14c1.03-.12,1.81-1.04,1.74-2.09v-.19s0-2.93,0-2.93h6v2.84c.21,4.3-3.08,8.03-7.38,8.35h-.11Z" fill="#6e23d2" stroke-width="0"/>
            <path d="M152.18,171.96h-6V44.6c.07-1.05-.7-1.96-1.73-2.08h-67.14c-1.03.12-1.81,1.04-1.74,2.09v.19s0,12.64,0,12.64h-6v-12.55c-.21-4.3,3.08-8.03,7.38-8.35h.22s67.63,0,67.63,0c4.3.32,7.59,4.05,7.38,8.35v127.09Z" fill="#6e23d2" stroke-width="0"/>
          </g>
        </g>
      </g>
      <g id="Gruppe_736" data-name="Gruppe 736">
        <g clip-path="url(#clippath-1)">
          <g id="Gruppe_735" data-name="Gruppe 735">
            <path id="Pfad_3500" data-name="Pfad 3500" d="M128.85,58.66c2.49,0,4.5,2.01,4.5,4.5s-2.01,4.5-4.5,4.5-4.5-2.01-4.5-4.5,2.01-4.5,4.5-4.5h0" fill="#6e23d2" stroke-width="0"/>
            <path d="M3,61.13c-.71,0-1.42-.25-1.99-.76-1.24-1.1-1.35-3-.25-4.24l17.75-19.97c5.36-6.03,13.07-9.5,21.14-9.5h1.28c1.66,0,3,1.34,3,3s-1.34,3-3,3h-1.28c-6.36,0-12.43,2.73-16.66,7.48L5.24,60.12c-.59.67-1.42,1.01-2.24,1.01Z" fill="#6e23d2" stroke-width="0"/>
            <path d="M3,111.59c-1.52,0-2.82-1.15-2.98-2.69-.17-1.65,1.03-3.12,2.67-3.29l34.11-3.53,24.66-14.98c.58-.39,5.48-3.77,12.39-9.32,6.54-5.24,7.22-10.65,5-13.7-2.16-2.96-7.5-4.14-14.11.26-4.31,2.87-8.79,5.95-12.74,8.67-5.46,3.75-10.18,7-12.7,8.49-.7.42-1.6.53-2.39.31-1.2-.33-1.97-.78-4.97-6.64-.75-1.47-.17-3.28,1.3-4.04,1.48-.76,3.28-.17,4.04,1.3.43.83.89,1.69,1.3,2.43,2.56-1.67,6.09-4.1,10.01-6.79,3.97-2.73,8.47-5.82,12.81-8.72,9.89-6.59,18.48-4,22.28,1.19,3.79,5.18,3.5,14.26-6.09,21.93-7.53,6.04-12.63,9.5-12.84,9.64-.04.03-.08.05-.12.08l-25.3,15.37c-.38.23-.81.37-1.25.42l-34.78,3.6c-.1.01-.21.02-.31.02ZM36.3,76.3s-.07.04-.11.06c.03-.02.07-.04.11-.06Z" fill="#6e23d2" stroke-width="0"/>
            <path d="M50.8,63.16c-5.96,0-10.81-4.85-10.81-10.81V10.81C39.99,4.85,44.84,0,50.8,0h66.47c5.96,0,10.81,4.85,10.81,10.81v21.62c0,1.38-1.12,2.5-2.5,2.5s-2.5-1.12-2.5-2.5V10.81c0-3.2-2.61-5.81-5.81-5.81H50.8c-3.2,0-5.81,2.61-5.81,5.81v41.54c0,3.2,2.61,5.81,5.81,5.81,1.38,0,2.5,1.12,2.5,2.5s-1.12,2.5-2.5,2.5ZM113.49,21.62h-54.37c-1.38,0-2.5-1.12-2.5-2.5s1.12-2.5,2.5-2.5h54.37c1.38,0,2.5,1.12,2.5,2.5s-1.12,2.5-2.5,2.5Z" fill="#00dcb4" stroke-width="0"/>
            <path d="M95.91,30.6h-36.51c-1.38,0-2.5-1.12-2.5-2.5s1.12-2.5,2.5-2.5h36.51c1.38,0,2.5,1.12,2.5,2.5s-1.12,2.5-2.5,2.5Z" fill="#00dcb4" stroke-width="0"/>
          </g>
        </g>
      </g>
    </g>
  </g>
</svg>