<svg id="vector" xmlns="http://www.w3.org/2000/svg" width="46.356" height="57.553" viewBox="0 0 46.356 57.553"><defs><clipPath id="clip_path_0"><path d="M8.645,0h37.712v57.552h-37.712z"/></clipPath></defs><g id="g_0"><path fill="#868686" d="M23.788,46.124L12.973,46.124c-0.054,0 -0.109,0 -0.163,0s-0.106,-0.008 -0.159,-0.011q-0.143,-0.016 0.035,0.008l-0.123,-0.02a1.725,1.725 0,0 1,-0.65 -0.187c0.015,0.011 0.173,0.081 0.032,0.013 -0.055,-0.027 -0.109,-0.052 -0.163,-0.08a3.471,3.471 0,0 1,-0.311 -0.185,0.77 0.77,0 0,1 -0.147,-0.1c0.133,0.153 0.024,0.017 -0.018,-0.019q-0.114,-0.1 -0.219,-0.2c-0.077,-0.078 -0.142,-0.169 -0.22,-0.246s0.111,0.164 0,0c-0.044,-0.067 -0.091,-0.132 -0.133,-0.2q-0.079,-0.128 -0.147,-0.263a0.961,0.961 0,0 1,-0.077 -0.165c0.056,0.209 0.01,0.017 -0.006,-0.026q-0.052,-0.145 -0.09,-0.294a1.485,1.485 0,0 0,-0.074 -0.366l0.014,0.1q-0.007,-0.063 -0.011,-0.126c0,-0.064 -0.007,-0.128 -0.009,-0.192 0,-0.027 0,-0.044 0,-0.066 0,-0.006 0,-0.012 0,-0.017 0,-0.25 0,-0.5 0,-0.749L10.334,4.847c0,-0.221 -0.006,-0.442 0,-0.663 0,-0.064 0.009,-0.127 0.012,-0.191 0.01,-0.207 -0.026,0.132 0,0 0.021,-0.112 0.04,-0.224 0.069,-0.335s0.056,-0.2 0.09,-0.294c0.016,-0.044 0.062,-0.236 0.006,-0.027a1.169,1.169 0,0 1,0.105 -0.218q0.07,-0.133 0.152,-0.261c0.032,-0.051 0.068,-0.1 0.1,-0.149 0.085,-0.126 -0.013,0.008 -0.022,0.026a2.121,2.121 0,0 1,0.5 -0.512c0.152,-0.135 -0.149,0.1 0.021,-0.016 0.05,-0.033 0.1,-0.069 0.149,-0.1Q11.645,2.029 11.781,1.959c0.054,-0.028 0.109,-0.054 0.163,-0.08 0.14,-0.069 -0.018,0 -0.032,0.013a1.285,1.285 0,0 1,0.408 -0.133c0.1,-0.026 0.2,-0.045 0.3,-0.064 0.209,-0.04 -0.186,0.008 0.027,0 0.053,0 0.106,-0.008 0.159,-0.011s0.114,0 0.172,0c1.318,-0.009 2.636,0 3.954,0L33.697,1.684c0.086,0 0.171,0 0.257,0.009 0.018,0 0.123,0.016 0.126,0.011q-0.177,-0.026 -0.036,0l0.123,0.023q0.152,0.031 0.3,0.075 0.088,0.026 0.175,0.057c0.046,0.017 0.234,0.057 0.026,0.006a2,2 0,0 1,0.579 0.323c0.041,0.028 0.207,0.111 0.023,0.012a0.854,0.854 0,0 1,0.138 0.116q0.112,0.1 0.215,0.208 0.062,0.065 0.12,0.134c0.038,0.044 0.171,0.145 0.019,0.018a1.213,1.213 0,0 1,0.2 0.3q0.077,0.13 0.143,0.266c0.027,0.056 0.129,0.182 0.013,0.023a0.713,0.713 0,0 1,0.063 0.172c0.033,0.1 0.061,0.2 0.085,0.3q0.022,0.091 0.039,0.183 0.011,0.062 0.02,0.123 -0.021,-0.162 -0.011,-0.066c0.006,0.125 0.017,0.249 0.018,0.374 0,0.092 0,0.184 0,0.277l-0.007,1.4q-0.014,2.741 -0.028,5.483l-0.039,7.694q-0.021,4.113 -0.041,8.226 -0.018,3.536 -0.036,7.072 -0.011,2.143 -0.022,4.285 0,0.291 0,0.581a0.837,0.837 0,0 0,1.674 0l0.012,-2.395 0.03,-6.042 0.04,-7.98q0.021,-4.1 0.041,-8.205 0.017,-3.36 0.034,-6.72l0.018,-3.523a4.522,4.522 0,0 0,-1.078 -3.031A4.428,4.428 0,0 0,33.498 -0.001L13.978,-0.001C13.621,-0.001 13.263,-0.001 12.906,-0.001A4.361,4.361 0,0 0,8.665 4.12c-0.042,0.76 -0.005,1.531 -0.005,2.292L8.66,41.207c0,0.76 -0.006,1.52 0,2.279A4.343,4.343 0,0 0,12.245 47.732a14.586,14.586 0,0 0,2.218 0.067h9.33a0.837,0.837 0,0 0,0 -1.674" clip-path="url(#clip_path_0)"/><path fill="#868686" d="M21.018,5.151L25.65,5.151a0.837,0.837 0,1 0,0 -1.674h-4.631a0.837,0.837 0,0 0,0 1.674"/><path fill="#868686" d="M9.497,41.885L21.633,41.885c0.559,0 1.119,0.011 1.678,0L23.333,41.885a0.837,0.837 0,1 0,0 -1.674L11.198,40.211c-0.559,0 -1.119,-0.011 -1.678,0L9.497,40.211a0.837,0.837 0,1 0,0 1.674"/><path fill="#868686" d="M15.913,30.682v-3.6a6.36,6.36 0,0 1,0.035 -0.827l-0.03,0.223a4.025,4.025 0,0 1,0.27 -0.987l-0.084,0.2a4,4 0,0 1,0.341 -0.635q0.048,-0.073 0.1,-0.144c0.021,-0.028 0.1,-0.128 0.005,-0.009s-0.025,0.033 0,0.008q0.117,-0.144 0.248,-0.276t0.259,-0.239l0.061,-0.05c0.116,-0.1 -0.135,0.1 -0.061,0.046 0.048,-0.035 0.1,-0.07 0.145,-0.1a3.992,3.992 0,0 1,0.667 -0.364l-0.2,0.084a24.359,24.359 0,0 1,2.723 -1.023,11.473 11.473,0 0,1 1.589,-0.329l-0.223,0.03a11.49,11.49 0,0 1,2.976 0l-0.223,-0.03a11.48,11.48 0,0 1,2.71 0.71l1.112,0.445c0.164,0.065 0.328,0.129 0.491,0.2l-0.2,-0.084a3.99,3.99 0,0 1,0.651 0.353c0.049,0.033 0.1,0.068 0.145,0.1 0.109,0.079 -0.137,-0.11 -0.06,-0.047l0.061,0.05q0.143,0.119 0.275,0.252t0.236,0.261l0.049,0.061c-0.164,-0.194 -0.084,-0.11 -0.048,-0.061s0.068,0.095 0.1,0.143a3.992,3.992 0,0 1,0.352 0.651l-0.084,-0.2a4.025,4.025 0,0 1,0.27 0.987l-0.03,-0.223a4.214,4.214 0,0 1,0.035 0.522,0.837 0.837,0 1,0 1.674,0 4.785,4.785 0,0 0,-1.343 -3.3,4.535 4.535,0 0,0 -1.4,-0.983c-0.279,-0.123 -0.565,-0.232 -0.848,-0.346a20.873,20.873 0,0 0,-2.185 -0.8,12.026 12.026,0 0,0 -4.072,-0.4 12.185,12.185 0,0 0,-3.615 0.822c-0.5,0.2 -0.992,0.394 -1.486,0.594a5.038,5.038 0,0 0,-1.561 0.966,4.51 4.51,0 0,0 -1.014,1.373 4.971,4.971 0,0 0,-0.476 1.832c-0.01,0.167 -0.008,0.335 -0.008,0.5v3.645a0.837,0.837 0,1 0,1.674 0"/><path fill="#868686" d="M17.505,27.416v3.266a0.837,0.837 0,1 0,1.674 0L19.179,27.416a0.837,0.837 0,1 0,-1.674 0"/><path fill="#868686" d="M23.241,22.391a4.183,4.183 0,0 0,3.067 -1.364,4.6 4.6,0 0,0 0.942,-1.609 5.3,5.3 0,0 0,0.2 -0.889l0.163,-1.022a8.348,8.348 0,0 0,0.129 -1.055,4.826 4.826,0 0,0 -1.146,-3.225 4.455,4.455 0,0 0,-2.987 -1.54,4.4 4.4,0 0,0 -3.186,1.02 4.588,4.588 0,0 0,-1.6 2.771,5.374 5.374,0 0,0 0,1.728c0.042,0.268 0.085,0.536 0.128,0.8s0.082,0.521 0.124,0.782a4.357,4.357 0,0 0,0.534 1.473,4.264 4.264,0 0,0 2.709,2.02 4.452,4.452 0,0 0,0.92 0.105,0.837 0.837,0 0,0 0,-1.674 3.582,3.582 0,0 1,-0.419 -0.027l0.223,0.03a3.4,3.4 0,0 1,-0.862 -0.235l0.2,0.084a3.449,3.449 0,0 1,-0.551 -0.3c-0.046,-0.031 -0.09,-0.065 -0.136,-0.1 -0.079,-0.053 0.154,0.125 0.081,0.063l-0.057,-0.047q-0.128,-0.107 -0.246,-0.226t-0.213,-0.235a0.685,0.685 0,0 0,-0.047 -0.058c0.007,0.007 0.127,0.169 0.062,0.08 -0.033,-0.046 -0.066,-0.092 -0.1,-0.139a3.7,3.7 0,0 1,-0.318 -0.587l0.084,0.2a5.89,5.89 0,0 1,-0.333 -1.392c-0.062,-0.389 -0.129,-0.778 -0.185,-1.168l0.03,0.223a4.153,4.153 0,0 1,0 -1.093l-0.03,0.223a4.076,4.076 0,0 1,0.278 -1.01l-0.084,0.2a4.007,4.007 0,0 1,0.329 -0.615q0.05,-0.076 0.1,-0.15c0.021,-0.029 0.094,-0.124 0,0s-0.016,0.022 0,0q0.109,-0.133 0.23,-0.256t0.251,-0.234c0.034,-0.029 0.184,-0.147 0.056,-0.048s0.044,-0.029 0.076,-0.051a3.67,3.67 0,0 1,0.618 -0.339l-0.2,0.084a3.633,3.633 0,0 1,0.924 -0.252l-0.223,0.03a3.7,3.7 0,0 1,0.914 0l-0.223,-0.03a3.633,3.633 0,0 1,0.924 0.252l-0.2,-0.084a3.68,3.68 0,0 1,0.6 0.329,0.851 0.851,0 0,1 0.147,0.1s-0.186,-0.151 -0.07,-0.053l0.07,0.058q0.131,0.111 0.251,0.234t0.23,0.256l0.045,0.057c-0.168,-0.2 -0.09,-0.118 -0.054,-0.068s0.071,0.1 0.1,0.149a3.988,3.988 0,0 1,0.339 0.63l-0.084,-0.2a4.076,4.076 0,0 1,0.278 1.01l-0.03,-0.223a4.148,4.148 0,0 1,0 1.093l0.03,-0.223c-0.056,0.39 -0.123,0.779 -0.185,1.168a5.89,5.89 0,0 1,-0.333 1.392l0.084,-0.2a3.706,3.706 0,0 1,-0.307 0.571q-0.047,0.071 -0.1,0.139c-0.1,0.135 0.122,-0.15 0.016,-0.021q-0.106,0.13 -0.225,0.249t-0.232,0.214l-0.057,0.047c-0.087,0.073 0.081,-0.06 0.082,-0.063 -0.01,0.032 -0.107,0.078 -0.135,0.1a3.446,3.446 0,0 1,-0.566 0.309l0.2,-0.084a3.4,3.4 0,0 1,-0.862 0.235l0.223,-0.03a3.418,3.418 0,0 1,-0.419 0.027,0.837 0.837,0 1,0 0,1.674"/><path fill="#868686" d="M34.662,56.714q0.031,-0.8 0.062,-1.6a6.3,6.3 0,0 0,-0.105 -2.083,3.826 3.826,0 0,0 -0.9,-1.494c-0.376,-0.4 -0.814,-0.746 -1.221,-1.117a27.434,27.434 0,0 1,-2.794 -2.974c-0.032,-0.039 -0.089,-0.125 0.041,0.054 -0.028,-0.039 -0.059,-0.078 -0.088,-0.117q-0.079,-0.108 -0.154,-0.218 -0.144,-0.21 -0.273,-0.429c-0.173,-0.293 -0.306,-0.6 -0.458,-0.9 0.122,0.244 -0.01,-0.029 -0.033,-0.091q-0.047,-0.124 -0.09,-0.249 -0.078,-0.228 -0.142,-0.461a8,8 0,0 1,-0.212 -1.043l0.03,0.223a25.773,25.773 0,0 1,-0.113 -2.632,9.4 9.4,0 0,0 -0.284,-2.128 9.617,9.617 0,0 0,-0.58 -1.566l-2,-4.37 -0.388,-0.849c-0.034,-0.074 -0.123,-0.315 -0.03,-0.059a5.4,5.4 0,0 1,-0.3 -1.105l0.03,0.223a4.578,4.578 0,0 1,0 -1.192l-0.03,0.223a5.19,5.19 0,0 1,0.3 -1.1c-0.108,0.287 0.01,-0.014 0.047,-0.087q0.07,-0.141 0.151,-0.278 0.07,-0.119 0.149,-0.234 0.033,-0.049 0.068,-0.1c0.039,-0.054 0.171,-0.2 -0.011,0.01 0.123,-0.142 0.24,-0.286 0.375,-0.417q0.109,-0.106 0.224,-0.205c0.036,-0.031 0.073,-0.061 0.11,-0.091 0.11,-0.091 -0.182,0.134 -0.006,0.006a4.286,4.286 0,0 1,0.493 -0.311c0.066,-0.035 0.242,-0.089 -0.018,0 0.038,-0.013 0.074,-0.028 0.112,-0.04a1.776,1.776 0,0 1,0.3 -0.067l-0.223,0.03a1.847,1.847 0,0 1,0.417 0l-0.222,-0.03a1.785,1.785 0,0 1,0.33 0.075c0.023,0.008 0.047,0.019 0.071,0.025 -0.215,-0.055 -0.148,-0.069 -0.079,-0.032s0.123,0.063 0.182,0.1 0.163,0.154 -0.015,-0.02c0.041,0.04 0.087,0.074 0.128,0.115s0.076,0.089 0.117,0.128c-0.147,-0.141 -0.1,-0.133 -0.06,-0.076 0.022,0.033 0.045,0.065 0.065,0.1a2.451,2.451 0,0 1,0.135 0.269l0.368,0.819 1.477,3.282 1.727,3.837 1.047,2.325a3.417,3.417 0,0 0,1.209 1.44,3.353 3.353,0 0,0 1.595,0.533 3.3,3.3 0,0 0,1.666 -0.327,3.375 3.375,0 0,0 0.721,-0.479 0.84,0.84 0,0 0,0.245 -0.592,0.852 0.852,0 0,0 -0.245,-0.592 0.842,0.842 0,0 0,-0.592 -0.245,0.956 0.956,0 0,0 -0.592,0.245c-0.087,0.071 0.069,-0.048 0.077,-0.057a0.425,0.425 0,0 1,-0.079 0.057q-0.063,0.044 -0.129,0.084t-0.149,0.084c-0.038,0.019 -0.221,0.1 -0.07,0.037s-0.018,0 -0.056,0.018 -0.1,0.034 -0.158,0.049a2.6,2.6 0,0 1,-0.321 0.064l0.223,-0.03a2.607,2.607 0,0 1,-0.646 0l0.223,0.03a2.574,2.574 0,0 1,-0.521 -0.128c-0.183,-0.067 0.152,0.073 0.034,0.017 -0.038,-0.018 -0.076,-0.035 -0.114,-0.054a2.474,2.474 0,0 1,-0.249 -0.146c-0.035,-0.024 -0.068,-0.05 -0.1,-0.073 0.228,0.15 0.083,0.065 0.027,0.016a2.409,2.409 0,0 1,-0.2 -0.193c-0.029,-0.032 -0.057,-0.066 -0.086,-0.1 -0.084,-0.1 0.066,0.083 0.061,0.081a0.313,0.313 0,0 1,-0.044 -0.061,2.49 2.49,0 0,1 -0.16,-0.263c-0.071,-0.135 -0.13,-0.278 -0.193,-0.417l-0.923,-2.05 -1.4,-3.111 -1.369,-3.041 -0.827,-1.837a2.522,2.522 0,0 0,-3.617 -1.208,5.334 5.334,0 0,0 -2.683,4.59 5.494,5.494 0,0 0,0.529 2.306l0.346,0.756 1.387,3.034 0.56,1.226 0.145,0.317 0.024,0.053 0.023,0.051 0.033,0.075c0.047,0.1 -0.062,-0.154 -0.021,-0.05 0.054,0.135 0.107,0.269 0.154,0.406a7.951,7.951 0,0 1,0.368 1.554l-0.03,-0.223a20.54,20.54 0,0 1,0.1 2.059,12.224 12.224,0 0,0 0.254,2.506 8.771,8.771 0,0 0,1.731 3.474c0.408,0.507 0.853,0.989 1.3,1.467 0.458,0.495 0.93,0.977 1.428,1.432 0.438,0.4 0.914,0.767 1.313,1.21 0.042,0.047 0.083,0.094 0.123,0.143 0.02,0.024 0.1,0.128 0,0s-0.008,-0.009 0.012,0.02a2.708,2.708 0,0 1,0.2 0.331c0.039,0.077 0.093,0.27 0.008,0 0.019,0.061 0.045,0.119 0.064,0.18a2.7,2.7 0,0 1,0.094 0.433l-0.03,-0.223a7.437,7.437 0,0 1,0 1.187l-0.058,1.492 -0.014,0.37a0.844,0.844 0,0 0,0.837 0.837,0.855 0.855,0 0,0 0.837,-0.837"/><path fill="#868686" d="M46.34,56.267l-0.155,-1.13 -0.373,-2.714 -0.453,-3.3 -0.39,-2.841q-0.095,-0.691 -0.19,-1.382l0,-0.02 0.03,0.223 -0.138,-1.887 -0.222,-3.037a17.237,17.237 0,0 0,-0.421 -3.057,13.843 13.843,0 0,0 -2.177,-4.538 38.761,38.761 0,0 0,-3.371 -3.966l-0.438,-0.467a0.844,0.844 0,0 0,-1.184 0,0.855 0.855,0 0,0 0,1.184c0.8,0.853 1.6,1.7 2.363,2.592q0.273,0.32 0.537,0.647c0.087,0.108 0.177,0.215 0.259,0.327 0,0 -0.134,-0.174 -0.055,-0.071l0.063,0.083 0.137,0.182c0.327,0.44 0.637,0.893 0.921,1.363a13.349,13.349 0,0 1,0.862 1.678l-0.085,-0.2a11.7,11.7 0,0 1,0.813 2.971l-0.03,-0.222c0.07,0.533 0.1,1.07 0.139,1.606l0.173,2.372c0.069,0.942 0.1,1.893 0.231,2.829l0.459,3.341 0.677,4.929c0.133,0.968 0.247,1.941 0.4,2.906 0,0.015 0,0.031 0.006,0.046a0.834,0.834 0,0 0,0.385 0.5,0.837 0.837,0 0,0 1.145,-0.3 0.987,0.987 0,0 0,0.084 -0.645"/></g></svg>