<svg xmlns="http://www.w3.org/2000/svg" width="180" height="180" viewBox="0 0 180 180">
    <g data-name="illustration">
        <circle data-name="Ellipse 243" cx="90" cy="90" r="90" style="fill:#f2f2ff"/>
    </g>
    <g data-name="Gruppe 694">
        <path data-name="Pfad 3378" d="M116.377 74.711V28.328a4.215 4.215 0 0 0-1.234-2.98L93.029 3.234A4.213 4.213 0 0 0 90.049 2H8.214A4.214 4.214 0 0 0 4 6.214v132.043a4.214 4.214 0 0 0 4.214 4.214h66.022" transform="translate(29.151 17.417)" style="stroke-width:6px;stroke-linecap:round;stroke-linejoin:round;stroke:#6e23d2;fill:none"/>
        <path data-name="Pfad 3379" d="M16 2v23.88a4.214 4.214 0 0 0 4.214 4.214h23.88" transform="translate(101.434 17.417)" style="stroke-width:6px;stroke-linecap:round;stroke-linejoin:round;stroke:#6e23d2;fill:none"/>
    </g>
    <path data-name="Pfad 3351" d="M35.595 14.916a9.585 9.585 0 0 1 14.174 0 9.585 9.585 0 0 0 7.531 3.121A9.586 9.586 0 0 1 67.326 28.06a9.586 9.586 0 0 0 3.121 7.54 9.586 9.586 0 0 1 0 14.174 9.586 9.586 0 0 0-3.121 7.526A9.586 9.586 0 0 1 57.3 67.328a9.585 9.585 0 0 0-7.535 3.121 9.585 9.585 0 0 1-14.174 0 9.585 9.585 0 0 0-7.535-3.121A9.586 9.586 0 0 1 18.037 57.3a9.586 9.586 0 0 0-3.121-7.535 9.586 9.586 0 0 1 0-14.174 9.586 9.586 0 0 0 3.121-7.535A9.586 9.586 0 0 1 28.06 18.037a9.586 9.586 0 0 0 7.535-3.121z" transform="translate(97.929 94.111)" style="stroke-width:6px;stroke:#6e23d2;fill:none"/>
    <path data-name="Pfad 3352" d="m15.364 22.372 6.464 6.463 12.925-12.926" transform="translate(115.552 114.425)" style="stroke:#00dcb4;stroke-width:6px;stroke-linecap:round;stroke-linejoin:round;fill:none"/>
    <path data-name="Pfad 3429" d="M11 9h67.323" transform="translate(44.679 54.257)" style="stroke-width:6px;stroke-linecap:round;stroke-linejoin:round;stroke:#6e23d2;fill:none"/>
    <path data-name="Pfad 3430" d="M11 9h67.323" transform="translate(44.679 73.925)" style="stroke-width:6px;stroke-linecap:round;stroke-linejoin:round;stroke:#6e23d2;fill:none"/>
    <path data-name="Rechteck 1548" transform="translate(4 19)" style="fill:none" d="M0 0h171v143H0z"/>
</svg>
